<svg width="28" height="28" viewBox="0 0 28 28" fill="none" xmlns="http://www.w3.org/2000/svg">
<path d="M15.75 1.75L5.25 16.625H14.875L12.25 26.25L22.75 11.375H13.125L15.75 1.75Z" fill="#FFE145"/>
<path d="M8.62713 15.3125C8.54698 15.3124 8.4684 15.2903 8.39996 15.2485C8.33153 15.2068 8.27587 15.1471 8.23906 15.0759C8.20225 15.0047 8.1857 14.9248 8.19123 14.8448C8.19675 14.7649 8.22414 14.688 8.27039 14.6225L10.0641 12.085C10.1321 11.9928 10.2335 11.9309 10.3466 11.9126C10.4596 11.8944 10.5754 11.9212 10.6689 11.9873C10.7624 12.0534 10.8263 12.1536 10.8468 12.2663C10.8673 12.379 10.8428 12.4952 10.7785 12.59L8.98474 15.1275C8.94436 15.1848 8.89078 15.2315 8.82854 15.2637C8.76629 15.2959 8.69721 15.3126 8.62713 15.3125Z" fill="#FCF4BB"/>
<path d="M17.062 16.835C16.9819 16.8349 16.9033 16.8128 16.8349 16.7712C16.7664 16.7295 16.7108 16.6698 16.6739 16.5986C16.6371 16.5274 16.6205 16.4475 16.626 16.3675C16.6315 16.2876 16.6589 16.2107 16.7051 16.1452L19.0151 12.8729C19.0825 12.7794 19.1841 12.7162 19.2978 12.6972C19.4115 12.6781 19.5282 12.7048 19.6224 12.7713C19.7166 12.8378 19.7807 12.9388 19.8008 13.0523C19.821 13.1658 19.7955 13.2827 19.7299 13.3776L17.4199 16.6498C17.3795 16.7071 17.3258 16.7539 17.2636 16.7861C17.2013 16.8183 17.1322 16.8351 17.062 16.835Z" fill="#BFA934"/>
<path d="M11.375 11.375C11.6166 11.375 11.8125 11.1791 11.8125 10.9375C11.8125 10.6959 11.6166 10.5 11.375 10.5C11.1334 10.5 10.9375 10.6959 10.9375 10.9375C10.9375 11.1791 11.1334 11.375 11.375 11.375Z" fill="#FCF4BB"/>
<path d="M12.25 26.6875C12.1827 26.6874 12.1164 26.6719 12.0561 26.6421C11.9958 26.6122 11.9432 26.5689 11.9024 26.5154C11.8616 26.462 11.8337 26.3998 11.8208 26.3338C11.8079 26.2678 11.8104 26.1997 11.8281 26.1348L14.3022 17.0625H5.24998C5.1698 17.0625 5.09117 17.0404 5.02266 16.9988C4.95416 16.9571 4.89843 16.8974 4.86154 16.8262C4.82466 16.755 4.80805 16.6751 4.81352 16.5951C4.81899 16.5151 4.84634 16.4382 4.89258 16.3727L15.3926 1.49766C15.4519 1.4136 15.539 1.35313 15.6385 1.3269C15.738 1.30066 15.8435 1.31034 15.9366 1.35421C16.0297 1.39809 16.1043 1.47337 16.1474 1.56682C16.1904 1.66026 16.1992 1.7659 16.1721 1.86516L13.6977 10.9375H22.75C22.8302 10.9375 22.9088 10.9595 22.9773 11.0012C23.0458 11.0428 23.1015 11.1025 23.1384 11.1737C23.1753 11.2449 23.1919 11.3249 23.1864 11.4048C23.181 11.4848 23.1536 11.5618 23.1074 11.6273L12.6074 26.5023C12.567 26.5595 12.5134 26.6062 12.4512 26.6384C12.389 26.6706 12.32 26.6875 12.25 26.6875ZM6.09435 16.1875H14.875C14.9423 16.1875 15.0086 16.203 15.0689 16.2328C15.1292 16.2626 15.1819 16.3059 15.2227 16.3594C15.2635 16.4129 15.2915 16.475 15.3044 16.5411C15.3173 16.6071 15.3148 16.6752 15.2971 16.7401L13.3262 23.9668L21.9056 11.8125H13.125C13.0577 11.8125 12.9913 11.797 12.931 11.7671C12.8707 11.7373 12.8181 11.694 12.7773 11.6405C12.7364 11.5871 12.7085 11.5249 12.6956 11.4589C12.6827 11.3928 12.6852 11.3247 12.7029 11.2598L14.6737 4.03319L6.09435 16.1875Z" fill="#FFFF5A"/>
</svg>
