<svg width="32" height="32" viewBox="0 0 32 32" fill="none" xmlns="http://www.w3.org/2000/svg">
<g clip-path="url(#clip0_10492_2372)">
<path d="M4.61781 0C2.08294 0 0.00170898 2.08438 0.00170898 4.61918V27.3683C0.00170898 29.9032 2.08294 32 4.61781 32H27.37C29.9049 32 31.9986 29.9032 31.9986 27.3683V4.61918C31.9986 2.08438 29.9048 0 27.37 0L4.61781 0ZM15.9189 6.55061C16.5176 6.55054 17.0662 6.88447 17.3409 7.41635L19.3724 11.398L23.8135 11.9761C24.6898 12.0915 25.3066 12.8953 25.1913 13.7716C25.1452 14.1213 24.985 14.446 24.7355 14.6951L21.582 17.858L22.4071 22.2521C22.57 23.1208 21.9978 23.957 21.1291 24.12C20.785 24.1845 20.4291 24.1344 20.1162 23.9773L16.1252 21.9583L12.2029 24.096C11.428 24.5211 10.4553 24.2374 10.0303 23.4624C9.85977 23.1516 9.79729 22.7929 9.85272 22.4427L10.5372 18.0235L7.28687 14.9544C6.64616 14.3456 6.62036 13.3327 7.22911 12.692C7.47184 12.4366 7.79205 12.2684 8.14008 12.2136L12.5436 11.5042L14.4688 7.46315C14.7232 6.93 15.2507 6.58032 15.8409 6.55369C15.8669 6.55197 15.8929 6.55092 15.9189 6.55047V6.55061Z" fill="#E96E32"/>
</g>
<defs>
<clipPath id="clip0_10492_2372">
<rect width="32" height="32" fill="white"/>
</clipPath>
</defs>
</svg>
