<svg width="18" height="18" viewBox="0 0 18 18" fill="none" xmlns="http://www.w3.org/2000/svg">
<path d="M7.66042 7.4295C7.60139 7.43019 7.54247 7.43489 7.48408 7.44356C7.42986 7.45121 7.3746 7.44286 7.32506 7.41955C7.27553 7.39624 7.23387 7.35898 7.2052 7.31233C7.17653 7.26569 7.1621 7.21169 7.16368 7.15697C7.16526 7.10224 7.18277 7.04917 7.21408 7.00425C7.32758 6.84067 7.401 6.65268 7.42841 6.45548C7.45581 6.25827 7.43643 6.05739 7.37182 5.86906C7.30722 5.68073 7.19921 5.51025 7.05653 5.37139C6.91384 5.23253 6.74049 5.12919 6.55047 5.06973C6.36046 5.01027 6.15912 4.99635 5.96273 5.0291C5.76634 5.06185 5.58042 5.14036 5.41999 5.25826C5.25955 5.37617 5.12911 5.53017 5.03921 5.70782C4.94931 5.88547 4.90247 6.08178 4.90248 6.28088C4.90273 6.57398 5.00416 6.85801 5.18964 7.08497C5.22632 7.12963 5.24835 7.18451 5.25274 7.24214C5.25712 7.29977 5.24364 7.35735 5.21414 7.40705C5.18463 7.45675 5.14053 7.49615 5.08784 7.51989C5.03514 7.54364 4.97641 7.55057 4.91964 7.53975C4.71599 7.50075 4.50589 7.51223 4.3077 7.5732C4.10952 7.63417 3.92929 7.74276 3.78277 7.88948C3.63625 8.0362 3.52791 8.21657 3.46722 8.41484C3.40652 8.61311 3.39532 8.82323 3.4346 9.02682C3.47388 9.23042 3.56244 9.42129 3.69254 9.58275C3.82263 9.74421 3.9903 9.87134 4.18089 9.95302C4.37147 10.0347 4.57916 10.0685 4.7858 10.0513C4.99244 10.0342 5.19174 9.96668 5.36626 9.85472C5.4104 9.8263 5.4616 9.8108 5.51409 9.80997C5.56658 9.80914 5.61825 9.82302 5.66325 9.85003C5.70826 9.87704 5.74481 9.91611 5.76877 9.96282C5.79273 10.0095 5.80314 10.062 5.79883 10.1143L5.6928 11.4013H6.6513L6.5388 10.0232C6.53449 9.97077 6.54498 9.9182 6.56905 9.87144C6.59313 9.82468 6.62983 9.7856 6.675 9.75866C6.72017 9.73171 6.77198 9.71796 6.82457 9.71899C6.87715 9.72001 6.9284 9.73575 6.97248 9.76444C7.13821 9.87186 7.32672 9.93913 7.52301 9.9609C7.71931 9.98266 7.91797 9.95832 8.1032 9.8898C8.28844 9.82129 8.45513 9.71049 8.59001 9.56624C8.7249 9.42198 8.82426 9.24823 8.8802 9.05882C8.93613 8.86941 8.94709 8.66956 8.91221 8.47516C8.87733 8.28077 8.79756 8.0972 8.67926 7.93905C8.56096 7.78091 8.40739 7.65255 8.23076 7.56419C8.05414 7.47582 7.85932 7.4299 7.66183 7.43006L7.66042 7.4295Z" fill="#838588"/>
<path d="M10.5598 13.8144V1.54097C10.5596 1.43067 10.5156 1.32495 10.4376 1.24698C10.3596 1.16901 10.2539 1.12515 10.1436 1.125H2.20049C2.09019 1.12515 1.98444 1.16901 1.90642 1.24698C1.8284 1.32495 1.78446 1.43067 1.78424 1.54097V14.2341H10.5592L10.5598 13.8144ZM5.58674 2.00194H8.43102C8.50561 2.00194 8.57715 2.03157 8.6299 2.08431C8.68264 2.13706 8.71227 2.2086 8.71227 2.28319C8.71227 2.35778 8.68264 2.42932 8.6299 2.48206C8.57715 2.53481 8.50561 2.56444 8.43102 2.56444H5.58674C5.51215 2.56444 5.44061 2.53481 5.38787 2.48206C5.33512 2.42932 5.30549 2.35778 5.30549 2.28319C5.30549 2.2086 5.33512 2.13706 5.38787 2.08431C5.44061 2.03157 5.51215 2.00194 5.58674 2.00194ZM3.91274 2.00194H4.10343C4.17802 2.00194 4.24956 2.03157 4.3023 2.08431C4.35505 2.13706 4.38468 2.2086 4.38468 2.28319C4.38468 2.35778 4.35505 2.42932 4.3023 2.48206C4.24956 2.53481 4.17802 2.56444 4.10343 2.56444H3.91302C3.83843 2.56444 3.76689 2.53481 3.71415 2.48206C3.6614 2.42932 3.63177 2.35778 3.63177 2.28319C3.63177 2.2086 3.6614 2.13706 3.71415 2.08431C3.76689 2.03157 3.83815 2.00194 3.91274 2.00194ZM7.6604 10.5323C7.48333 10.5325 7.30718 10.5068 7.13755 10.456L7.23683 11.6609C7.24003 11.6997 7.23512 11.7388 7.22243 11.7756C7.20973 11.8125 7.18952 11.8463 7.16308 11.8749C7.13664 11.9035 7.10454 11.9263 7.06882 11.9418C7.0331 11.9574 6.99454 11.9654 6.95558 11.9652H5.38621C5.34725 11.9654 5.30869 11.9574 5.27297 11.9418C5.23726 11.9263 5.20516 11.9035 5.17872 11.8749C5.15227 11.8463 5.13206 11.8125 5.11937 11.7756C5.10667 11.7388 5.10176 11.6997 5.10496 11.6609L5.19693 10.5452C4.95353 10.6165 4.69798 10.6365 4.44645 10.6039C4.19493 10.5713 3.95292 10.4868 3.73575 10.3558C3.51858 10.2247 3.33098 10.0501 3.18484 9.84278C3.0387 9.63549 2.93719 9.40011 2.88676 9.15154C2.83632 8.90298 2.83806 8.64666 2.89184 8.3988C2.94563 8.15094 3.05031 7.91695 3.19924 7.71166C3.34817 7.50636 3.53811 7.33423 3.75703 7.20616C3.97595 7.0781 4.21908 6.99689 4.47102 6.96769C4.36024 6.69318 4.31764 6.39592 4.34686 6.10136C4.37607 5.80679 4.47624 5.52369 4.63879 5.2763C4.80134 5.02891 5.02142 4.82459 5.28019 4.68085C5.53896 4.53711 5.82871 4.45822 6.12463 4.45094C6.42056 4.44366 6.71384 4.5082 6.97936 4.63904C7.24489 4.76988 7.47475 4.96312 7.64927 5.20222C7.82379 5.44132 7.93776 5.71915 7.98143 6.01192C8.0251 6.3047 7.99717 6.60369 7.90002 6.88331C8.36124 6.94419 8.78202 7.17827 9.07695 7.53804C9.37189 7.89782 9.51889 8.35634 9.48811 8.82054C9.45733 9.28474 9.25108 9.71983 8.91122 10.0375C8.57136 10.3552 8.12336 10.5317 7.65815 10.5311L7.6604 10.5323Z" fill="#838588"/>
<path d="M11.1223 5.65313V10.6481C11.7364 10.5791 12.3034 10.2862 12.7152 9.8255C13.127 9.36479 13.3546 8.76854 13.3546 8.15063C13.3546 7.53271 13.127 6.93646 12.7152 6.47575C12.3034 6.01505 11.7364 5.72219 11.1223 5.65313Z" fill="#838588"/>
<path d="M1.78424 16.459C1.78446 16.5693 1.8284 16.675 1.90642 16.753C1.98444 16.831 2.09019 16.8749 2.20049 16.875H10.1436C10.2539 16.8749 10.3596 16.831 10.4376 16.753C10.5156 16.675 10.5596 16.5693 10.5598 16.459V14.7966H1.78424V16.459ZM4.3574 15.5005H7.98552C8.06011 15.5005 8.13165 15.5302 8.1844 15.5829C8.23714 15.6357 8.26677 15.7072 8.26677 15.7818C8.26677 15.8564 8.23714 15.9279 8.1844 15.9807C8.13165 16.0334 8.06011 16.063 7.98552 16.063H4.3574C4.2828 16.063 4.21127 16.0334 4.15852 15.9807C4.10578 15.9279 4.07615 15.8564 4.07615 15.7818C4.07615 15.7072 4.10578 15.6357 4.15852 15.5829C4.21127 15.5302 4.2828 15.5005 4.3574 15.5005Z" fill="#838588"/>
<path d="M11.1223 13.5332H11.7036C11.7819 13.1908 11.974 12.8851 12.2486 12.6661C12.5231 12.4471 12.8639 12.3277 13.2151 12.3275C13.5047 12.3283 13.7879 12.4127 14.0307 12.5705L15.2578 11.3473C15.0989 11.103 15.0151 10.8175 15.0168 10.5261C15.0162 10.175 15.1354 9.83427 15.3547 9.56013C15.5739 9.28598 15.8802 9.09484 16.2228 9.01828V7.28438C15.8802 7.20792 15.5739 7.01685 15.3546 6.74274C15.1353 6.46863 15.0162 6.1279 15.0168 5.77688C15.0153 5.4872 15.0993 5.20351 15.2581 4.96125L14.0304 3.73219C13.7876 3.89006 13.5044 3.97444 13.2148 3.97519C12.8636 3.9749 12.5229 3.85545 12.2484 3.63638C11.9739 3.41731 11.7818 3.11158 11.7036 2.76919H11.1215V5.09063C11.8854 5.16016 12.5957 5.51277 13.1129 6.0792C13.6301 6.64564 13.9169 7.38498 13.9169 8.15203C13.9169 8.91908 13.6301 9.65842 13.1129 10.2249C12.5957 10.7913 11.8854 11.1439 11.1215 11.2134L11.1223 13.5332Z" fill="#838588"/>
</svg>
