<svg width="18" height="18" viewBox="0 0 18 18" fill="none" xmlns="http://www.w3.org/2000/svg">
<path d="M11.94 7.18658C12.3976 7.18658 12.8926 6.91961 13.375 6.41531C13.39 6.39883 13.4075 6.38236 13.4226 6.36258C13.1526 5.68361 13.0025 4.91894 13.0076 4.04879C13.3201 3.85762 13.535 3.44234 13.535 2.95782C13.535 2.29202 13.1275 1.75479 12.625 1.75479C12.12 1.75479 11.7101 2.29202 11.7101 2.95782C11.7101 3.38629 11.88 3.76204 12.135 3.97299C11.935 4.77061 11.435 5.55506 10.7525 6.32303C10.755 6.33621 10.7625 6.34611 10.7676 6.35598C11.055 6.88335 11.4525 7.18658 11.94 7.18658Z" fill="#838588"/>
<path d="M4.99501 4.04879C5.00002 4.89586 4.8575 5.64076 4.59999 6.30656C4.62001 6.32961 4.63753 6.35269 4.65748 6.37246C5.15248 6.90641 5.66249 7.18988 6.13253 7.18988C6.24001 7.18988 6.34493 7.17338 6.44503 7.14373C6.77499 7.04486 7.05502 6.79436 7.28243 6.39553C7.285 6.38896 7.29 6.38236 7.29244 6.37576C6.58748 5.58473 6.07003 4.78379 5.86501 3.97299C6.12001 3.76204 6.29 3.38629 6.29 2.95782C6.29 2.29202 5.87996 1.75479 5.37502 1.75479C4.87251 1.75479 4.46498 2.29202 4.46498 2.95782C4.46498 3.44234 4.68251 3.86092 4.99501 4.04879Z" fill="#838588"/>
<path d="M16.01 1.75479C15.4625 1.75479 15.02 2.33817 15.02 3.05999C15.02 3.42914 15.135 3.76204 15.3225 4.00264C14.9175 5.23206 14.3351 6.25381 13.685 6.93278C12.9925 7.6579 12.2275 7.9908 11.52 7.78645C11.045 7.64473 10.655 7.27886 10.3625 6.74161C9.99253 6.06593 9.775 5.12329 9.74753 4.04549C10.0675 3.74227 10.275 3.24457 10.275 2.68425C10.275 1.75479 9.70249 1 8.99753 1C8.29245 1 7.72506 1.75479 7.72506 2.68425C7.72506 3.28742 7.96249 3.81479 8.32248 4.11142C8.29001 5.18591 8.06747 6.12526 7.68246 6.79106C7.39498 7.29863 7.01498 7.6513 6.55501 7.78645C5.83248 8.00068 5.045 7.64143 4.33998 6.88005C3.70002 6.18459 3.12751 5.15954 2.72999 3.93014C2.88496 3.69942 2.97999 3.39289 2.97999 3.05999C2.97999 2.33817 2.53498 1.75479 1.98749 1.75479C1.44 1.75479 1 2.33817 1 3.05999C1 3.65987 1.30249 4.16416 1.71747 4.31906L3.79249 12.4536H14.2051L16.2825 4.31576C16.6951 4.16086 17 3.65657 17 3.05999C17 2.33817 16.5551 1.75479 16.01 1.75479Z" fill="#838588"/>
<path d="M2.84273 13.113H15.157V15H2.84273V13.113Z" fill="#838588"/>
</svg>
