<svg width="42" height="42" viewBox="0 0 42 42" fill="none" xmlns="http://www.w3.org/2000/svg">
<path d="M38.0624 18.3751C38.0633 17.6855 37.9279 17.0026 37.664 16.3655C37.4001 15.7284 37.0129 15.1498 36.5246 14.6628L24.7121 2.85035C24.2247 2.36279 23.6459 1.97604 23.009 1.71218C22.372 1.44831 21.6893 1.3125 20.9999 1.3125C20.3104 1.3125 19.6278 1.44831 18.9908 1.71218C18.3539 1.97604 17.7751 2.36279 17.2876 2.85035L5.47515 14.6628C4.49162 15.6476 3.93938 16.9826 3.93982 18.3744C3.94026 19.7662 4.49333 21.1008 5.47748 22.085C6.46162 23.0691 7.79628 23.6222 9.18807 23.6227C10.5799 23.6231 11.9149 23.0708 12.8996 22.0873L20.9999 13.9871L29.1001 22.0873C29.8344 22.8215 30.7698 23.3215 31.7882 23.5241C32.8066 23.7266 33.8622 23.6227 34.8215 23.2253C35.7807 22.828 36.6007 22.1551 37.1776 21.2917C37.7544 20.4284 38.0624 19.4134 38.0624 18.3751Z" fill="white"/>
<path d="M26.25 35.4375V13.7812C26.25 12.3889 25.6969 11.0535 24.7123 10.0689C23.7277 9.08437 22.3924 8.53125 21 8.53125C19.6076 8.53125 18.2723 9.08437 17.2877 10.0689C16.3031 11.0535 15.75 12.3889 15.75 13.7812V35.4375C15.75 36.8299 16.3031 38.1652 17.2877 39.1498C18.2723 40.1344 19.6076 40.6875 21 40.6875C22.3924 40.6875 23.7277 40.1344 24.7123 39.1498C25.6969 38.1652 26.25 36.8299 26.25 35.4375Z" fill="white"/>
<path opacity="0.1" d="M12.8494 18.303C11.4253 19.5564 9.40406 22.5227 7.21875 22.3061C6.46951 22.3244 5.7332 22.1088 5.11218 21.6893C5.95787 22.7244 7.16584 23.3988 8.49075 23.5755C9.81567 23.7523 11.1582 23.4181 12.2456 22.6408C12.3244 22.5621 15.0937 19.2283 15.0937 19.2283C15.0884 18.9707 15.008 18.7203 14.8625 18.5077C14.7169 18.295 14.5125 18.1295 14.2743 18.0313C14.0361 17.9331 13.7744 17.9065 13.5213 17.9547C13.2682 18.003 13.0347 18.124 12.8494 18.303ZM35.4834 13.7289L24.045 2.29051C22.9495 1.5213 21.6046 1.19277 20.2779 1.37032C18.9512 1.54786 17.74 2.21846 16.8853 3.24864C17.6446 2.76436 18.546 2.55255 19.4415 2.64795C20.337 2.74334 21.1735 3.14028 21.8137 3.77364L33.6262 15.5861C34.3154 16.2771 34.7236 17.1992 34.7718 18.1739C34.8201 19.1486 34.5049 20.1065 33.8873 20.8621C33.2698 21.6177 32.3938 22.1172 31.429 22.264C30.4642 22.4107 29.4793 22.1943 28.665 21.6564L29.0981 22.0896C29.9614 22.9509 31.0972 23.4854 32.3111 23.6015C33.525 23.7176 34.7416 23.4082 35.7525 22.7261C36.856 21.4715 37.442 19.8446 37.392 18.1745C37.3421 16.5043 36.6599 14.9154 35.4834 13.7289ZM22.9687 19.2283V35.4311C22.969 36.1347 22.7806 36.8255 22.4233 37.4316C22.0659 38.0377 21.5526 38.537 20.9368 38.8773C20.3211 39.2177 19.6253 39.3868 18.922 39.3671C18.2187 39.3473 17.5335 39.1393 16.9378 38.7649C17.7735 39.7665 18.9492 40.4248 20.24 40.6137C21.5307 40.8026 22.8458 40.5088 23.9334 39.7886C25.0022 38.5887 25.5931 37.038 25.5937 35.4311L26.25 19.3464L25.2066 18.303C25.0217 18.1241 24.7886 18.003 24.5359 17.9548C24.2832 17.9066 24.0219 17.9333 23.7841 18.0316C23.5464 18.1299 23.3425 18.2955 23.1977 18.5082C23.0528 18.7208 22.9732 18.9711 22.9687 19.2283Z" fill="url(#paint0_linear_10492_2703)"/>
<path d="M39.3734 18.3687C39.3758 17.5065 39.2071 16.6525 38.8772 15.856C38.5472 15.0595 38.0625 14.3363 37.4511 13.7284L25.6386 1.91594C24.404 0.692646 22.7363 0.00634766 20.9983 0.00634766C19.2602 0.00634766 17.5925 0.692646 16.3579 1.91594L4.54572 13.7284C3.62801 14.6462 3.00305 15.8155 2.74986 17.0885C2.49667 18.3614 2.62663 19.6809 3.1233 20.88C3.61997 22.0791 4.46105 23.104 5.54019 23.8251C6.61932 24.5462 7.88804 24.9311 9.18593 24.9312C10.1927 24.9173 11.1842 24.6835 12.091 24.2461C12.9979 23.8088 13.7982 23.1785 14.4359 22.3994V35.4312C14.4359 37.1716 15.1273 38.8408 16.358 40.0715C17.5888 41.3022 19.2579 41.9937 20.9984 41.9937C22.7389 41.9937 24.4081 41.3022 25.6388 40.0715C26.8695 38.8408 27.5609 37.1716 27.5609 35.4312V22.3994C29.9577 25.4055 34.7468 25.8401 37.4515 23.0089C38.0627 22.4009 38.5473 21.6778 38.8772 20.8813C39.2071 20.0848 39.3758 19.2308 39.3734 18.3687ZM5.25035 18.3687C5.24947 17.8516 5.35072 17.3395 5.5483 16.8617C5.74587 16.3839 6.03588 15.9498 6.40167 15.5844L18.2142 3.7719C18.9549 3.03801 19.9555 2.62628 20.9983 2.62628C22.041 2.62628 23.0416 3.03801 23.7824 3.7719L35.5952 15.5844C36.3329 16.3229 36.7471 17.3242 36.7468 18.368C36.7465 19.4119 36.3317 20.4129 35.5936 21.151C34.8555 21.8891 33.8545 22.304 32.8107 22.3043C31.7668 22.3047 30.7656 21.8905 30.027 21.1529L27.1764 18.3026C26.9913 18.1232 26.7578 18.0018 26.5045 17.9534C26.2513 17.9051 25.9895 17.9319 25.7513 18.0306C25.5131 18.1292 25.309 18.2954 25.1641 18.5086C25.0192 18.7219 24.9399 18.9728 24.9359 19.2306V35.4312C24.9359 36.4754 24.5211 37.477 23.7827 38.2154C23.0442 38.9538 22.0427 39.3687 20.9984 39.3687C19.9541 39.3687 18.9526 38.9538 18.2142 38.2154C17.4758 37.477 17.0609 36.4754 17.0609 35.4312V19.2306C17.0569 18.9729 16.9776 18.7219 16.8327 18.5086C16.6879 18.2954 16.4838 18.1292 16.2456 18.0306C16.0074 17.9319 15.7455 17.9051 15.4923 17.9534C15.2391 18.0018 15.0055 18.1232 14.8205 18.3026C13.3939 19.5565 11.3746 22.5222 9.18593 22.3062C8.1442 22.2985 7.14735 21.8811 6.4109 21.1443C5.67444 20.4074 5.25755 19.4104 5.25035 18.3687Z" fill="#E96E32"/>
<defs>
<linearGradient id="paint0_linear_10492_2703" x1="21.2536" y1="1.32324" x2="21.2536" y2="40.6696" gradientUnits="userSpaceOnUse">
<stop stop-color="#1A3769"/>
<stop offset="1" stop-color="#0D1D34"/>
</linearGradient>
</defs>
</svg>
